HIERARCHY
ROOT root
{
	OFFSET	0	13.1	24.9
	CHANNELS 6  Xposition Yposition Zposition Xrotation Yrotation Zrotation
	JOINT spine_1
	{
		OFFSET	0	9.99999	0
		CHANNELS 3  Xrotation Yrotation Zrotation
		JOINT spine_2
		{
			OFFSET	0	112	-10
			CHANNELS 3  Xrotation Yrotation Zrotation
			JOINT spine_3
			{
				OFFSET	0	206.5	19.3
				CHANNELS 3  Xrotation Yrotation Zrotation
				JOINT spine_4
				{
					OFFSET	0	110.4	14.6
					CHANNELS 3  Xrotation Yrotation Zrotation
					JOINT neck_1
					{
						OFFSET	0	71.8	-50.3
						CHANNELS 3  Xrotation Yrotation Zrotation
						JOINT neck_2
						{
							OFFSET	0	86.2	-25.8
							CHANNELS 3  Xrotation Yrotation Zrotation
							JOINT head_ee
							{
								OFFSET	0	179.8	-8.7
								CHANNELS 3  Xrotation Yrotation Zrotation
								End Site
								{
									OFFSET	1	0	0
								}
							}
						}
					}
					JOINT left_clavicle
					{
						OFFSET	-43.2	22.4	-70.8
						CHANNELS 3  Xrotation Yrotation Zrotation
						JOINT left_shoulder
						{
							OFFSET	-93.9	-5.79999	48.7
							CHANNELS 3  Xrotation Yrotation Zrotation
							JOINT left_elbow
							{
								OFFSET	-291.4	-30.8	15.2
								CHANNELS 3  Xrotation Yrotation Zrotation
								JOINT left_lowarm_twist
								{
									OFFSET	-110.7	-3.89999	13.6
									CHANNELS 3  Xrotation Yrotation Zrotation
									JOINT left_hand
									{
										OFFSET	-110.7	-3.89999	13.6
										CHANNELS 3  Xrotation Yrotation Zrotation
										JOINT left_ee
										{
											OFFSET	-80.8	-5.10001	12.1
											CHANNELS 3  Xrotation Yrotation Zrotation
											End Site
											{
												OFFSET	1	0	0
											}
										}
									}
								}
							}
						}
					}
					JOINT right_clavicle
					{
						OFFSET	43.2	22.4	-70.8
						CHANNELS 3  Xrotation Yrotation Zrotation
						JOINT right_shoulder
						{
							OFFSET	93.9	-5.79999	48.7
							CHANNELS 3  Xrotation Yrotation Zrotation
							JOINT right_elbow
							{
								OFFSET	291.4	-30.8	15.2
								CHANNELS 3  Xrotation Yrotation Zrotation
								JOINT right_lowarm_twist
								{
									OFFSET	110.7	-3.89999	13.6
									CHANNELS 3  Xrotation Yrotation Zrotation
									JOINT right_hand
									{
										OFFSET	110.7	-3.89999	13.6
										CHANNELS 3  Xrotation Yrotation Zrotation
										JOINT right_ee
										{
											OFFSET	80.8	-5.10001	12.1
											CHANNELS 3  Xrotation Yrotation Zrotation
											End Site
											{
												OFFSET	1	0	0
											}
										}
									}
								}
							}
						}
					}
				}
			}
		}
	}
	JOINT left_hip
	{
		OFFSET	-82.8	-127.5	0.300001
		CHANNELS 3  Xrotation Yrotation Zrotation
		JOINT left_knee
		{
			OFFSET	-28.2	-396.7	2.2
			CHANNELS 3  Xrotation Yrotation Zrotation
			JOINT left_ankle
			{
				OFFSET	-11.7	-411.3	35.4
				CHANNELS 3  Xrotation Yrotation Zrotation
				JOINT left_toes
				{
					OFFSET	0	-60	-88.6
					CHANNELS 3  Xrotation Yrotation Zrotation
					JOINT left_foot_ee
					{
						OFFSET	-22.5	-16.5	-42.2
						CHANNELS 3  Xrotation Yrotation Zrotation
						End Site
						{
							OFFSET	1	0	0
						}
					}
				}
			}
		}
	}
	JOINT right_hip
	{
		OFFSET	82.8	-127.5	0.300001
		CHANNELS 3  Xrotation Yrotation Zrotation
		JOINT right_knee
		{
			OFFSET	28.2	-396.7	2.2
			CHANNELS 3  Xrotation Yrotation Zrotation
			JOINT right_ankle
			{
				OFFSET	11.7	-411.3	35.4
				CHANNELS 3  Xrotation Yrotation Zrotation
				JOINT right_toes
				{
					OFFSET	0	-60	-88.6
					CHANNELS 3  Xrotation Yrotation Zrotation
					JOINT right_foot_ee
					{
						OFFSET	22.5	-16.5	-42.2
						CHANNELS 3  Xrotation Yrotation Zrotation
						End Site
						{
							OFFSET	1	0	0
						}
					}
				}
			}
		}
	}
}
MOTION
Frames: 5
Frame Time: 0.02
1165.41695962 737.49 -1782.55669399 -6.89345041103 18.0221614773 -1.27078182093 3.28704 0.475816 1.07852 3.2876 0.406227 1.10661 3.29527 0.231455 1.15586 3.29364 0.411086 1.10481 -4.74963 4.33826 -3.82778 -4.66413 10.8506 -3.1842 -0.0 0.0 -0.0 7.10693 10.6049 13.5444 -21.3309 14.3783 62.6231 1.67127 -39.6181 0.60203 7.42522 0.201821 -0.926353 9.0882 -18.5776 63.5466 -0.0 0.0 -0.0 13.0481 22.8835 -26.1187 -5.82863 -7.81367 -59.4381 0.523372 14.5349 -0.0667436 27.6478 -0.133044 3.49521 0.0555261 8.50726 3.23887 0.0 0.0 0.0 24.1647 28.798 -8.49689 -52.1235 -1.41209 7.60276 31.0644 -28.1241 -4.82733 -6.03628 0.0 0.0 -0.0 0.0 -0.0 26.7009 37.1009 -8.18152 -30.5625 -0.0221123 -4.63497 13.9915 -20.592 2.01105 3.27489 -0.0 -0.0 0.0 0.0 0.0 
1148.18308382 737.09 -1796.35375601 -6.3766115825 20.1443195107 -1.6941234443 3.09272 0.523726 1.08846 3.09327 0.453408 1.11957 3.102 0.272126 1.17684 3.10036 0.454559 1.11911 -5.2881 4.78196 -3.29583 -5.22088 11.2644 -2.50808 -0.0 0.0 -0.0 7.19022 10.9617 13.6748 -22.1104 14.0219 62.8257 1.53644 -37.2724 0.518176 7.18232 0.197128 -0.89568 9.06418 -18.4587 63.3913 -0.0 0.0 -0.0 13.138 25.7012 -26.0313 -1.50544 -6.23916 -58.8255 0.644042 17.6948 -0.10025 27.5162 -0.136419 3.47874 0.0911031 8.33122 2.92319 0.0 0.0 0.0 28.7849 26.3841 -8.35509 -51.5011 -1.3554 7.52544 30.1683 -27.3088 -4.67426 -7.18913 0.0 0.0 -0.0 0.0 -0.0 23.1654 34.7164 -5.9654 -31.0711 -0.0015528 -4.71032 13.5294 -19.9794 1.94321 3.5364 -0.0 -0.0 0.0 0.0 0.0 
1129.7661737 737.127 -1806.50577345 -6.45188717975 22.4216385578 -1.0850076614 3.01194 0.590068 1.1065 3.01247 0.518467 1.1418 3.02271 0.331235 1.20945 3.02104 0.518076 1.14197 -5.86186 5.23953 -2.81082 -5.81157 11.751 -1.87209 -0.0 0.0 -0.0 6.97672 11.2155 13.2857 -22.5629 14.284 62.1964 1.42324 -35.1829 0.451264 7.08146 0.195141 -0.882949 9.03262 -18.3234 63.1577 -0.0 0.0 -0.0 13.2049 26.962 -26.0334 1.60386 -4.87972 -58.4604 0.741686 20.1738 -0.131941 27.3462 -0.140722 3.45745 0.204149 8.41343 2.19422 0.0 0.0 0.0 32.8502 28.2887 -10.6264 -51.5532 -1.36012 7.53193 29.0237 -26.6599 -4.5002 -7.74055 0.0 0.0 -0.0 0.0 -0.0 20.4936 31.8543 -5.69111 -29.7039 -0.0552942 -4.50739 14.2082 -20.5196 2.04001 3.58877 -0.0 -0.0 0.0 0.0 0.0 
1110.10993179 735.193 -1808.49855458 -6.27588097519 24.6148571175 -0.517514178483 2.76429 0.598851 1.1805 2.76491 0.522525 1.21621 2.77595 0.317938 1.28495 2.77402 0.516867 1.21862 -5.60848 5.74091 -1.40892 -5.57673 11.6346 -0.384033 -0.0 0.0 -0.0 6.30088 12.3532 12.0637 -21.8716 13.5224 61.9266 1.35716 -33.911 0.41379 7.80561 0.20891 -0.974427 8.89446 -17.8954 61.9212 -0.0 0.0 -0.0 13.1836 27.0239 -25.9764 2.67875 -2.23995 -58.5763 0.87651 23.4701 -0.182079 27.0528 -0.148003 3.42067 0.334942 9.05979 1.58633 0.0 0.0 0.0 37.5307 28.6369 -13.3011 -53.1517 -1.5076 7.72915 29.0483 -25.6748 -4.45475 -8.78253 0.0 0.0 -0.0 0.0 -0.0 18.8279 29.3683 -6.51643 -30.0405 -0.0425128 -4.55746 14.3784 -20.3202 2.06152 4.44344 -0.0 -0.0 0.0 0.0 0.0 
1093.65551562 733.468 -1812.28844081 -6.89793365488 25.9597192706 -0.0380829981291 2.98989 0.528559 1.23391 2.99062 0.448977 1.26503 3.00038 0.24259 1.32023 2.99823 0.448035 1.26537 -5.96416 6.21163 -0.413925 -5.94594 11.7851 0.744939 -0.0 0.0 -0.0 5.65013 12.4676 10.9463 -21.2566 15.1184 61.997 1.23089 -31.3714 0.345668 8.41999 0.219684 -1.05217 8.96504 -18.1467 62.5055 -0.0 0.0 -0.0 13.0799 27.2852 -25.7038 3.77371 -1.79132 -58.9009 1.04837 27.4435 -0.255993 26.0086 -0.172376 3.28951 0.569162 10.2762 0.524709 0.0 0.0 0.0 40.3624 27.7775 -14.2581 -52.2588 -1.42453 7.61948 29.1326 -25.9861 -4.48018 -8.91161 0.0 0.0 -0.0 0.0 -0.0 17.5311 26.6006 -6.00313 -29.2606 -0.0716753 -4.44133 14.1573 -20.5374 2.03322 3.47282 -0.0 -0.0 0.0 0.0 0.0 
